<?xml version="1.0" standalone="no"?>
<!DOCTYPE svg PUBLIC "-//W3C//DTD SVG 20010904//EN"
 "http://www.w3.org/TR/2001/REC-SVG-20010904/DTD/svg10.dtd">
<svg version="1.0" xmlns="http://www.w3.org/2000/svg"
 width="292.000000pt" height="272.000000pt" viewBox="0 0 292.000000 272.000000"
 preserveAspectRatio="xMidYMid meet">

<g transform="translate(0.000000,272.000000) scale(0.100000,-0.100000)"
fill="#000000" stroke="none">
<path d="M1268 2547 l-158 -92 0 -1065 1 -1065 105 -60 c58 -33 109 -62 115
-63 5 -2 9 40 9 102 0 95 -2 107 -20 118 -19 12 -20 24 -20 335 0 178 3 323 6
323 4 0 67 -35 140 -77 l134 -78 0 -245 c0 -234 -1 -246 -20 -258 -18 -11 -20
-23 -20 -118 0 -58 4 -104 9 -102 5 2 57 30 115 63 l105 60 0 355 0 355 -209
120 c-116 65 -210 122 -210 125 0 3 22 17 48 31 26 14 120 67 210 119 l162 94
0 465 0 466 -160 93 c-87 50 -165 92 -172 91 -7 0 -84 -41 -170 -92z m241
-158 l71 -41 -2 -360 -3 -360 -95 -55 c-52 -30 -114 -65 -137 -79 l-43 -25 0
440 0 439 68 40 c37 22 68 41 69 41 1 1 33 -17 72 -40z"/>
<path d="M880 2322 l-115 -68 -17 -95 c-9 -52 -19 -106 -22 -122 l-6 -27 26
17 26 17 -6 -30 c-3 -16 -17 -92 -31 -169 -13 -77 -31 -174 -38 -215 l-14 -75
-56 175 c-32 97 -57 179 -57 184 0 5 7 14 15 20 12 10 11 23 -12 99 -15 48
-30 87 -33 87 -16 0 -172 -94 -177 -106 -2 -7 18 -82 45 -166 28 -84 82 -251
121 -371 l71 -218 0 -210 c0 -115 -4 -209 -8 -209 -4 0 -13 5 -20 12 -9 9 -12
-13 -12 -99 l0 -111 128 -72 c70 -40 130 -75 135 -77 4 -2 7 45 7 106 0 101
-2 110 -20 116 -19 6 -20 15 -20 268 l0 262 74 385 c41 212 91 467 110 568 20
101 36 185 36 188 0 10 -21 0 -130 -64z"/>
<path d="M1870 1390 c0 -550 2 -1000 4 -1000 6 0 571 325 619 356 l37 24 0
135 c0 92 -4 135 -11 135 -6 0 -49 -23 -95 -51 -78 -47 -84 -53 -84 -83 0 -32
-4 -36 -141 -115 -77 -44 -143 -81 -145 -81 -2 0 -4 306 -4 680 0 374 3 680 8
680 4 0 68 -36 142 -79 130 -76 135 -80 138 -115 3 -33 9 -38 91 -86 49 -27
91 -50 95 -50 3 0 6 62 6 139 l0 138 -324 187 c-178 102 -326 186 -330 186 -3
0 -6 -450 -6 -1000z"/>
</g>
</svg>
