<?xml version="1.0" standalone="no"?>
<!DOCTYPE svg PUBLIC "-//W3C//DTD SVG 20010904//EN"
 "http://www.w3.org/TR/2001/REC-SVG-20010904/DTD/svg10.dtd">
<svg version="1.0" xmlns="http://www.w3.org/2000/svg"
 width="1024.000000pt" height="1024.000000pt" viewBox="0 0 1024.000000 1024.000000"
 preserveAspectRatio="xMidYMid meet">

<g transform="translate(0.000000,1024.000000) scale(0.100000,-0.100000)"
fill="#000000" stroke="none">
<path d="M3327 9116 c-79 -29 -128 -81 -177 -189 -63 -139 -102 -299 -115
-469 l-7 -86 -47 -30 c-134 -87 -385 -329 -536 -517 -447 -557 -715 -1213
-774 -1900 -21 -233 -11 -620 20 -830 44 -302 178 -712 324 -991 l64 -122 -26
-23 c-79 -74 -223 -320 -282 -485 -78 -214 -97 -521 -48 -758 15 -71 40 -166
56 -212 16 -45 26 -85 23 -88 -3 -3 -65 -6 -138 -6 -126 0 -134 -1 -148 -22
-24 -34 -20 -92 7 -124 l23 -27 179 -1 178 -1 43 -72 c73 -124 162 -233 298
-368 154 -151 261 -231 424 -313 207 -105 345 -152 602 -204 160 -32 439 -32
575 1 185 44 318 98 442 177 134 86 332 297 380 406 l17 38 660 2 c364 2 1082
3 1596 3 732 0 940 3 957 13 47 26 56 82 22 126 l-21 27 -524 -3 c-288 -2
-524 -2 -524 -1 0 12 115 62 246 107 l161 56 543 2 542 1 30 25 c28 23 30 30
26 74 -3 27 -10 54 -16 60 -7 7 -138 12 -384 15 -390 4 -498 9 -498 23 0 5 29
35 65 67 179 160 335 383 416 596 70 184 91 289 105 518 4 77 12 128 19 134 7
6 33 36 59 68 168 210 330 530 420 829 108 359 141 629 133 1068 -5 299 -23
443 -86 719 -69 297 -199 626 -354 896 -72 126 -268 413 -350 513 -113 137
-346 363 -464 452 l-100 75 -7 63 c-29 277 -107 509 -203 608 -24 25 -69 57
-100 71 -50 23 -64 25 -137 20 -160 -11 -409 -89 -552 -173 -42 -24 -49 -26
-82 -15 -426 140 -736 187 -1172 178 -258 -5 -377 -19 -629 -72 -125 -27 -351
-89 -382 -106 -12 -6 -43 3 -111 35 -108 51 -311 121 -407 142 -83 17 -204 17
-254 0z m285 -170 c217 -60 510 -204 696 -343 64 -48 119 -89 122 -91 3 -3 -1
-7 -8 -10 -26 -8 -82 -64 -82 -80 0 -25 31 -52 59 -52 15 0 60 21 101 46 150
94 293 140 520 170 294 38 640 -35 874 -184 28 -18 61 -32 75 -32 26 0 71 35
71 56 0 14 -53 57 -84 68 -27 9 -14 21 142 129 184 127 364 226 499 276 121
44 271 81 328 81 103 0 168 -75 220 -257 74 -253 84 -540 29 -761 -27 -108
-93 -260 -148 -340 l-30 -43 -27 59 c-34 75 -116 198 -180 268 -27 30 -49 57
-49 60 0 3 8 18 19 32 48 69 103 187 135 292 38 122 50 191 62 334 5 67 11 93
25 107 23 23 24 57 3 87 -35 50 -160 7 -254 -87 -49 -49 -203 -270 -244 -348
-36 -70 -136 -333 -136 -357 0 -29 16 -66 34 -78 21 -14 38 -8 67 23 l29 31
37 -30 c55 -44 132 -128 185 -202 81 -115 166 -256 191 -317 13 -32 54 -96 90
-141 83 -102 135 -204 178 -347 65 -217 35 -393 -107 -630 -203 -340 -602
-651 -1019 -794 -67 -22 -142 -44 -168 -47 l-47 -7 -62 62 c-152 150 -437 240
-671 212 -133 -16 -194 -34 -331 -100 -98 -47 -132 -69 -167 -109 l-45 -50
-111 24 c-203 42 -436 155 -654 315 -120 88 -332 305 -405 414 -68 102 -123
210 -155 305 -26 77 -38 295 -21 376 23 106 83 224 177 350 61 81 103 148 125
200 33 81 121 225 196 324 53 70 163 190 174 190 5 0 12 -9 15 -20 4 -11 17
-27 30 -36 21 -13 27 -13 60 0 l37 16 -7 52 c-22 174 -143 452 -271 619 -87
114 -225 219 -288 219 -24 0 -96 -72 -96 -96 0 -11 15 -29 34 -41 32 -21 34
-25 34 -80 0 -196 107 -548 193 -639 l29 -30 -26 -25 c-31 -28 -146 -198 -199
-294 l-38 -67 -40 69 c-103 176 -139 288 -159 493 -19 206 13 484 73 640 42
110 75 155 128 179 63 28 88 26 233 -13z m1968 -12 c130 -16 496 -96 511 -111
5 -5 -31 -38 -84 -77 -52 -37 -111 -84 -132 -106 l-38 -39 -46 23 c-156 78
-467 136 -661 122 -178 -12 -431 -65 -537 -112 l-53 -23 -32 31 c-42 38 -203
165 -220 171 -23 10 10 24 96 42 44 9 124 27 176 40 192 47 392 64 690 59 113
-2 261 -11 330 -20z m-2556 -806 c40 -281 93 -428 227 -625 l49 -72 -25 -29
c-62 -74 -157 -253 -200 -377 -17 -52 -35 -189 -35 -278 0 -152 64 -370 139
-476 12 -16 21 -32 21 -34 0 -3 -48 -66 -106 -139 -128 -161 -268 -371 -381
-573 -47 -82 -90 -156 -97 -163 -10 -10 -25 -10 -82 4 -41 9 -87 14 -114 10
-25 -3 -117 -14 -205 -25 -148 -18 -161 -21 -182 -46 -30 -34 -29 -60 2 -90
17 -18 35 -25 62 -25 74 0 369 48 421 69 65 26 66 21 13 -103 -21 -50 -55
-143 -76 -206 -59 -183 -51 -170 -99 -170 -59 0 -187 -37 -213 -62 -31 -29
-30 -78 1 -107 26 -24 29 -24 149 11 37 11 71 18 74 15 3 -4 -5 -46 -17 -94
-12 -48 -32 -146 -44 -217 -18 -103 -26 -130 -42 -138 -10 -6 -29 -20 -41 -31
-12 -11 -28 -17 -35 -15 -16 7 -106 187 -159 322 -138 345 -196 643 -206 1066
-12 475 50 832 218 1277 150 397 449 866 716 1124 120 116 245 229 254 229 5
0 10 -15 13 -32z m4462 -77 c289 -262 492 -523 682 -876 181 -337 282 -630
351 -1020 34 -188 44 -361 38 -610 -14 -519 -87 -836 -292 -1270 -67 -143
-185 -328 -185 -291 0 32 -63 493 -79 571 -10 55 -18 101 -17 102 2 2 56 -13
179 -50 34 -10 39 -9 63 14 32 32 35 82 7 110 -22 22 -186 68 -244 69 l-37 0
-16 68 c-10 37 -45 135 -78 217 -33 83 -66 167 -73 187 l-14 37 25 -9 c13 -5
34 -16 46 -24 39 -25 127 -45 263 -61 182 -21 223 -20 252 7 28 26 29 48 3 81
-17 21 -31 26 -88 32 -37 3 -129 15 -204 25 -172 25 -199 25 -249 -1 -23 -11
-47 -18 -54 -15 -7 2 -30 35 -50 73 -125 229 -321 534 -437 682 -51 64 -96
121 -101 128 -6 8 0 24 16 45 36 48 93 166 123 255 33 97 44 282 24 389 -28
148 -63 237 -143 356 -42 62 -85 125 -96 139 l-21 26 62 89 c112 161 185 347
210 536 7 48 15 88 19 88 3 0 55 -44 115 -99z m-4126 -2032 c92 -124 299 -306
484 -427 177 -115 314 -174 544 -232 43 -11 43 -12 28 -33 -48 -66 -92 -177
-101 -257 -14 -114 -17 -267 -5 -337 23 -142 84 -285 173 -407 52 -70 157
-166 182 -166 26 0 26 -20 1 -53 -34 -44 -33 -79 3 -138 l30 -47 -26 -17 c-36
-24 -67 -98 -58 -144 10 -56 44 -102 89 -122 37 -16 81 -18 471 -20 471 -2
459 -3 517 58 56 59 62 126 18 196 -16 26 -34 47 -40 47 -6 0 0 15 14 33 46
60 46 114 1 163 l-25 27 52 34 c71 46 91 65 160 152 115 144 175 301 185 484
9 175 -19 342 -79 460 -16 33 -26 63 -21 67 4 4 60 23 123 41 221 64 549 250
728 413 56 52 203 211 237 258 l20 28 77 -76 c119 -116 356 -480 465 -714 136
-292 191 -460 241 -745 43 -238 56 -473 37 -635 -14 -120 -92 -325 -181 -473
-34 -57 -104 -153 -228 -315 l-48 -63 -27 25 c-15 14 -31 26 -35 26 -4 0 -28
-22 -52 -49 -49 -54 -150 -111 -282 -160 -159 -59 -192 -84 -192 -146 0 -53
13 -65 73 -65 69 0 200 47 402 144 l170 82 94 100 c136 143 237 288 296 422
11 23 22 42 25 42 8 0 -5 -101 -25 -188 -45 -198 -173 -421 -333 -580 -236
-236 -381 -319 -782 -450 -201 -65 -454 -115 -828 -162 -281 -35 -811 -25
-1054 21 l-125 24 -6 130 c-4 71 -13 160 -21 198 -31 142 -112 299 -209 404
l-38 42 45 56 c76 92 107 171 126 313 17 130 0 250 -56 392 -54 134 -69 163
-226 414 -142 227 -296 448 -392 565 -39 47 -84 103 -99 123 -39 53 -165 188
-206 221 -43 35 -89 36 -120 3 -34 -36 -23 -60 72 -167 365 -412 737 -976 848
-1285 30 -84 38 -262 14 -333 -16 -49 -35 -68 -35 -35 0 27 -60 161 -102 226
-77 120 -166 189 -203 158 -23 -19 -18 -53 13 -96 91 -125 163 -288 178 -403
7 -51 6 -54 -12 -47 -75 31 -163 56 -195 56 -34 0 -40 4 -65 48 -42 71 -130
187 -161 211 -19 15 -38 21 -62 19 -33 -3 -36 -6 -39 -36 -3 -27 9 -55 57
-133 39 -65 55 -99 45 -99 -20 0 -445 -169 -514 -205 -29 -15 -39 -15 -74 -5
-67 20 -177 79 -240 128 -33 26 -72 47 -87 48 -82 6 -306 257 -412 461 -122
237 -165 519 -123 813 17 115 32 170 46 170 4 0 10 27 14 60 10 89 59 278 111
430 87 252 308 657 488 890 61 78 177 200 192 200 5 -1 30 -28 55 -61z m2024
-438 c151 -53 278 -144 373 -265 107 -137 146 -253 146 -436 0 -250 -85 -431
-274 -576 -127 -97 -260 -130 -487 -121 -251 10 -370 63 -526 237 -119 132
-174 300 -163 505 11 206 67 335 207 476 71 72 100 94 180 133 130 64 195 77
355 72 99 -3 144 -9 189 -25z m156 -1565 c0 -47 -9 -48 -353 -50 -252 -1 -329
2 -354 13 -18 7 -33 19 -33 25 0 34 21 36 382 36 l358 0 0 -24z m-3252 -73
c-3 -57 21 -321 33 -373 6 -25 16 -55 22 -67 12 -25 30 -32 21 -8 -4 8 -3 15
0 15 3 0 24 -36 46 -79 40 -81 78 -132 208 -281 101 -115 187 -187 337 -281
l70 -44 -34 -3 c-70 -7 -260 64 -344 127 -99 75 -184 198 -253 366 -15 37 -17
38 -24 18 -5 -12 -7 -94 -6 -183 l3 -162 69 -70 c166 -170 385 -261 619 -259
186 1 318 37 575 156 175 82 262 105 389 105 120 0 196 -19 283 -70 158 -94
247 -258 284 -523 15 -108 16 -137 5 -194 -30 -162 -92 -277 -220 -404 -153
-153 -343 -249 -579 -295 -101 -19 -381 -19 -495 1 -417 73 -796 288 -1051
595 -152 183 -229 313 -306 516 -61 160 -84 308 -77 509 9 280 67 467 215 695
51 79 185 230 203 230 5 0 8 -17 7 -37z m3280 -125 c17 -17 15 -45 -4 -52 -9
-3 -195 -6 -415 -6 l-399 0 0 25 c0 13 8 29 18 34 26 16 784 15 800 -1z"/>
<path d="M5160 8310 c-127 -17 -220 -124 -220 -254 0 -90 71 -196 152 -231 47
-19 122 -19 179 0 174 59 225 279 96 413 -56 58 -125 82 -207 72z m105 -165
c30 -30 35 -42 35 -81 0 -57 -21 -88 -72 -109 -127 -50 -214 123 -100 200 53
36 93 33 137 -10z"/>
<path d="M4385 8026 c-111 -52 -157 -158 -85 -196 18 -9 33 -5 90 25 38 19 90
38 115 42 78 10 110 79 60 128 -33 34 -110 34 -180 1z"/>
<path d="M5806 8029 c-32 -25 -36 -77 -7 -103 10 -9 49 -25 87 -36 38 -10 90
-31 116 -45 l47 -26 26 25 c76 76 -42 206 -186 206 -42 0 -63 -5 -83 -21z"/>
<path d="M4316 7533 c-101 -30 -192 -108 -245 -208 -27 -51 -27 -89 1 -115 38
-35 64 -26 138 49 78 78 128 101 219 101 98 0 167 -44 253 -160 41 -55 83 -65
117 -29 29 31 26 73 -8 145 -51 108 -139 188 -241 218 -66 20 -169 20 -234 -1z"/>
<path d="M5843 7536 c-23 -7 -62 -25 -85 -39 -124 -73 -221 -251 -175 -320 36
-56 80 -40 147 52 65 90 139 131 234 131 85 -1 138 -27 211 -105 50 -54 66
-65 93 -65 40 0 72 30 72 68 0 70 -118 210 -217 258 -48 23 -74 28 -148 31
-57 2 -105 -2 -132 -11z"/>
<path d="M5138 7130 c-87 -11 -131 -26 -168 -57 -70 -58 -14 -172 110 -223 28
-12 30 -16 30 -64 0 -75 -47 -151 -115 -185 -125 -62 -265 -7 -291 114 -9 44
-32 65 -71 65 -44 0 -83 -37 -83 -79 0 -76 84 -192 171 -237 68 -34 171 -49
239 -35 80 17 153 54 199 101 l40 41 43 -42 c137 -134 352 -137 494 -7 52 48
94 126 94 176 0 63 -75 105 -124 69 -9 -7 -21 -32 -27 -55 -13 -59 -35 -90
-82 -114 -45 -23 -133 -27 -182 -8 -82 31 -149 126 -143 202 3 41 6 44 68 79
79 44 114 89 106 138 -14 90 -144 141 -308 121z"/>
<path d="M6632 7119 c-58 -11 -201 -54 -285 -86 -72 -26 -91 -49 -77 -88 15
-41 47 -40 241 4 105 23 195 49 209 60 31 23 38 71 13 93 -26 22 -52 27 -101
17z"/>
<path d="M3646 7099 c-56 -44 -18 -110 75 -127 30 -6 118 -23 196 -37 134 -26
144 -27 168 -11 30 20 33 58 6 85 -20 20 -107 49 -265 86 -128 30 -146 31
-180 4z"/>
<path d="M3723 6841 c-68 -6 -87 -11 -108 -31 -34 -32 -32 -62 7 -95 27 -23
38 -26 77 -21 25 3 80 8 121 11 123 10 182 23 207 47 25 23 30 67 11 86 -13
13 -165 14 -315 3z"/>
<path d="M6347 6836 c-23 -23 -22 -69 3 -91 36 -33 384 -50 414 -20 34 35 28
83 -14 105 -11 6 -102 14 -203 17 -164 5 -184 4 -200 -11z"/>
<path d="M3955 6639 c-38 -17 -109 -46 -157 -65 -95 -39 -115 -55 -124 -101
-7 -37 22 -73 59 -73 20 0 244 92 318 130 38 20 69 52 69 72 0 27 -45 68 -72
67 -13 0 -54 -14 -93 -30z"/>
<path d="M6277 6642 c-24 -27 -21 -58 9 -85 27 -26 332 -157 363 -157 26 0 61
42 61 73 0 51 -53 84 -233 148 -122 43 -175 49 -200 21z"/>
<path d="M2642 7584 c-29 -20 -44 -51 -37 -74 6 -19 188 -181 334 -298 84 -67
116 -67 152 0 18 33 -2 57 -160 191 -80 69 -159 137 -175 152 -26 24 -65 45
-84 45 -4 0 -18 -7 -30 -16z"/>
<path d="M2302 7037 c-25 -26 -28 -55 -9 -80 14 -19 408 -260 513 -314 40 -21
77 -34 87 -30 27 10 50 54 43 82 -7 29 -91 94 -201 157 -38 22 -132 78 -207
124 -151 93 -187 103 -226 61z"/>
<path d="M2111 6484 c-72 -61 -21 -113 164 -168 50 -15 203 -65 342 -112 139
-46 263 -84 276 -84 33 0 67 39 67 78 0 25 -7 36 -31 51 -33 20 -747 261 -773
261 -8 0 -28 -12 -45 -26z"/>
<path d="M2022 5907 c-28 -30 -28 -69 1 -101 20 -23 32 -26 162 -36 77 -6 210
-20 296 -31 86 -10 164 -16 173 -13 41 16 50 95 13 119 -14 9 -91 23 -192 35
-94 12 -216 27 -273 35 -138 20 -155 19 -180 -8z"/>
<path d="M7654 7588 c-71 -53 -372 -351 -378 -374 -14 -53 39 -88 92 -60 15 8
90 69 167 136 254 222 268 240 228 289 -28 33 -72 36 -109 9z"/>
<path d="M7910 7007 c-83 -56 -155 -100 -396 -245 -70 -43 -85 -72 -57 -110
35 -46 81 -37 209 39 185 108 408 250 421 267 7 10 13 27 13 40 0 29 -42 72
-72 72 -13 0 -66 -28 -118 -63z"/>
<path d="M7854 6391 c-193 -65 -364 -125 -380 -132 -16 -8 -35 -26 -43 -41
-14 -25 -14 -29 5 -55 37 -48 78 -40 464 87 363 120 390 133 390 188 0 33 -36
72 -66 71 -10 0 -177 -53 -370 -118z"/>
<path d="M8100 5905 c-80 -12 -153 -26 -162 -30 -26 -10 -24 -79 2 -105 25
-25 29 -25 220 0 85 11 158 20 162 20 16 0 68 53 68 70 0 9 -9 29 -21 44 -26
33 -66 33 -269 1z"/>
<path d="M7661 5843 c-27 -22 -31 -77 -7 -101 12 -12 33 -17 73 -16 68 0 85
18 81 84 l-3 45 -61 3 c-47 2 -66 -1 -83 -15z"/>
<path d="M6646 4976 c-328 -344 -468 -528 -708 -925 -260 -431 -315 -712 -188
-968 78 -157 184 -243 367 -295 103 -30 320 -32 428 -4 135 35 219 96 255 184
11 29 11 35 -1 43 -12 7 -12 9 0 9 8 0 12 3 9 6 -3 3 -14 1 -25 -4 -45 -24
-248 -82 -287 -82 -63 0 -96 29 -96 83 0 51 22 100 89 205 52 81 60 109 39
130 -47 47 -154 -32 -216 -158 -24 -48 -27 -67 -27 -154 -1 -73 -5 -101 -14
-104 -17 -6 -129 18 -162 34 -14 7 -40 29 -58 49 -25 29 -31 44 -31 83 0 101
43 219 119 321 86 118 98 164 46 177 -30 7 -75 -19 -126 -73 -78 -83 -106
-139 -155 -315 -17 -62 -20 -66 -30 -45 -18 33 -34 132 -34 201 1 150 86 373
234 609 229 368 387 584 634 866 87 100 97 126 62 161 -35 35 -68 26 -124 -34z"/>
<path d="M2735 4944 c-18 -19 -25 -38 -25 -65 0 -52 27 -79 80 -79 35 0 43 5
60 33 29 46 26 91 -6 116 -37 29 -79 27 -109 -5z"/>
<path d="M2709 4683 c-49 -12 -50 -139 -1 -195 20 -24 63 -23 96 3 22 17 26
28 26 72 0 29 -3 62 -6 74 -8 29 -74 55 -115 46z"/>
<path d="M7563 4675 c-15 -11 -25 -35 -34 -86 l-13 -72 28 -23 c37 -32 79 -31
105 2 26 33 44 99 37 130 -11 44 -87 74 -123 49z"/>
<path d="M2781 4344 c-24 -30 -26 -46 -10 -77 30 -58 85 -72 124 -32 51 51 17
135 -55 135 -30 0 -43 -6 -59 -26z"/>
<path d="M7467 4344 c-31 -31 -44 -79 -26 -100 7 -8 26 -22 42 -30 25 -14 31
-14 53 0 31 21 57 72 50 100 -5 22 -53 56 -79 56 -8 0 -26 -12 -40 -26z"/>
<path d="M5963 2703 c9 -2 23 -2 30 0 6 3 -1 5 -18 5 -16 0 -22 -2 -12 -5z"/>
<path d="M5873 2693 c9 -2 25 -2 35 0 9 3 1 5 -18 5 -19 0 -27 -2 -17 -5z"/>
<path d="M5657 4862 c-10 -10 -33 -69 -53 -131 -39 -126 -70 -169 -162 -228
-68 -44 -83 -74 -55 -111 40 -54 125 -34 219 51 69 62 110 129 145 234 37 110
37 141 1 176 -33 31 -72 35 -95 9z"/>
<path d="M4116 2668 c-15 -13 -29 -37 -32 -55 -7 -35 -2 -41 102 -129 64 -53
91 -67 119 -60 36 9 55 34 55 72 0 57 -42 118 -113 167 -50 34 -96 35 -131 5z"/>
<path d="M7828 8963 c-23 -28 -28 -38 -38 -94 -15 -78 -43 -102 -148 -129 -34
-9 -46 -18 -59 -45 -14 -28 -14 -38 -3 -65 14 -34 55 -60 94 -60 52 0 125 -94
126 -162 0 -14 12 -40 26 -57 32 -39 75 -41 109 -7 24 24 28 35 40 109 8 52
55 101 110 117 27 8 55 25 70 42 50 59 22 111 -76 143 -74 23 -103 57 -114
132 -9 62 -37 93 -85 93 -23 0 -43 -7 -52 -17z m87 -277 l45 -35 -49 -41 c-44
-36 -50 -39 -55 -22 -4 10 -17 29 -30 41 l-24 23 31 33 c18 19 33 34 34 34 2
1 23 -14 48 -33z"/>
<path d="M2375 8553 c-32 -36 -32 -73 1 -107 30 -29 45 -31 124 -12 44 10 57
18 64 38 22 63 -27 108 -120 108 -34 0 -48 -6 -69 -27z"/>
<path d="M1675 8040 c-33 -13 -45 -34 -56 -100 -18 -111 -52 -151 -147 -171
-76 -15 -110 -34 -118 -65 -15 -58 41 -104 125 -104 28 0 48 -8 71 -26 41 -35
57 -67 71 -149 18 -105 71 -143 131 -95 20 15 28 35 37 93 14 84 50 150 90
166 15 6 47 13 74 17 35 5 53 14 72 36 48 57 23 99 -74 123 -109 28 -143 65
-160 175 -14 90 -55 125 -116 100z m63 -312 l40 -36 -38 -41 -38 -40 -43 42
-44 41 35 37 c19 20 38 36 41 35 4 -1 25 -18 47 -38z"/>
<path d="M8563 7678 c-51 -57 -52 -90 -2 -133 89 -75 205 46 123 129 -35 34
-91 36 -121 4z"/>
<path d="M1446 4399 c-14 -17 -26 -42 -26 -55 0 -89 101 -137 154 -73 57 67
20 159 -63 159 -32 0 -44 -6 -65 -31z"/>
<path d="M8741 4375 c-44 -50 -42 -87 8 -136 46 -47 77 -50 121 -12 42 35 54
67 40 109 -15 46 -54 74 -100 74 -31 0 -44 -7 -69 -35z"/>
<path d="M1600 4060 c-46 -46 -8 -140 58 -140 37 0 75 40 75 80 0 67 -87 106
-133 60z"/>
<path d="M8502 3897 c-61 -35 -72 -102 -24 -150 43 -43 91 -43 133 -1 43 43
50 101 16 132 -30 28 -93 38 -125 19z"/>
<path d="M8471 3584 c-30 -38 -27 -85 6 -118 22 -23 34 -26 71 -24 52 3 85 37
85 88 0 48 -37 80 -94 80 -39 0 -51 -4 -68 -26z"/>
<path d="M8295 3174 c-57 -29 -95 -65 -126 -117 -27 -47 -30 -58 -26 -120 6
-89 39 -140 116 -179 74 -38 130 -37 197 1 75 43 114 108 114 190 0 75 -22
122 -80 175 -71 64 -136 81 -195 50z m99 -185 c14 -11 26 -29 26 -38 0 -29
-39 -71 -65 -71 -26 0 -65 42 -65 71 0 24 35 59 59 59 10 0 30 -9 45 -21z"/>
<path d="M8578 2402 c-69 -4 -83 -21 -75 -89 8 -74 17 -78 159 -76 68 1 128 2
135 2 6 1 25 13 42 27 42 35 44 92 4 124 -28 22 -56 23 -265 12z"/>
<path d="M4630 1640 c-31 -4 -65 -12 -78 -19 -43 -23 -56 -83 -24 -119 17 -20
25 -20 511 -15 l495 6 23 23 c31 31 30 78 -2 109 l-24 25 -423 -1 c-233 -1
-448 -5 -478 -9z"/>
<path d="M5955 1640 c-115 -3 -211 -7 -213 -8 -15 -10 -30 -75 -23 -94 18 -47
25 -49 282 -50 l243 -1 28 32 c36 40 35 65 -1 102 -24 23 -37 29 -68 27 -21
-1 -132 -5 -248 -8z"/>
<path d="M4805 1342 c-49 -25 -45 -100 8 -133 31 -19 47 -19 410 -17 l379 3
29 33 c35 39 37 71 5 101 -24 22 -24 22 -415 24 -301 2 -398 -1 -416 -11z"/>
</g>
</svg>
